<svg width="158" height="138" viewBox="0 0 158 138" fill="none" xmlns="http://www.w3.org/2000/svg">
<path d="M1 30C1 13.9837 13.9837 1 30 1H128C144.016 1 157 13.9837 157 30V108C157 124.016 144.016 137 128 137H30C13.9837 137 1 124.016 1 108V30Z" fill="#AE8964" stroke="#010101" stroke-width="2"/>
<path d="M1 36C1 19.9837 13.9837 7 30 7H113C129.016 7 142 19.9837 142 36V108C142 124.016 129.016 137 113 137H30C13.9837 137 1 124.016 1 108V36Z" fill="#ECE1D4" stroke="#010102" stroke-width="2"/>
<path d="M1 110L12.9163 106.089C21.1067 103.402 29.9257 103.299 38.1763 105.796L91.5087 121.934C108.406 127.047 126.698 121.047 137.284 106.919L141 101.96V105.117C141 121.592 127.715 134.984 111.24 135.116L26.9991 135.792C12.674 135.906 1 124.326 1 110Z" fill="#AE8964" fill-opacity="0.11"/>
<path d="M1 110L12.9163 106.089C21.1067 103.402 29.9257 103.299 38.1763 105.796L91.5087 121.934C108.406 127.047 126.698 121.047 137.284 106.919L141 101.96V105.117C141 121.592 127.715 134.984 111.24 135.116L26.9991 135.792C12.674 135.906 1 124.326 1 110Z" stroke="#010102"/>
<ellipse cx="10.9196" cy="12.4655" rx="10.9196" ry="12.4655" transform="matrix(-1 0 0 1 48.8398 44)" fill="#0A2016"/>
<ellipse cx="34.7094" cy="52.5289" rx="3.85396" ry="4.59254" fill="white"/>
<ellipse cx="41.9314" cy="60.502" rx="2.08567" ry="2.06819" fill="white"/>
<ellipse cx="10.9195" cy="12.4655" rx="10.9195" ry="12.4655" transform="matrix(-1 0 0 1 114.84 44)" fill="#0A2016"/>
<ellipse cx="100.709" cy="52.5289" rx="3.85396" ry="4.59253" fill="white"/>
<ellipse cx="107.931" cy="60.502" rx="2.08567" ry="2.06819" fill="white"/>
<ellipse cx="32.5869" cy="78.2507" rx="5.58694" ry="3.25074" fill="#F8C9DD"/>
<ellipse cx="105.993" cy="78.2507" rx="5.58694" ry="3.25074" fill="#F8C9DD"/>
<path d="M57 77C62.0909 89 80.1919 89 85 77" stroke="#0A2016" stroke-width="3" stroke-linecap="round" stroke-linejoin="round"/>
</svg>
