<svg width="62" height="34" viewBox="0 0 62 34" fill="none" xmlns="http://www.w3.org/2000/svg">
<g clip-path="url(#clip0_111_9512)">
<path d="M5.42183 2.94007C5.42183 2.71211 5.5738 2.49584 5.87775 2.27957C6.1817 2.0633 6.59085 1.87041 7.10522 1.69506C7.61959 1.51971 8.20995 1.37942 8.87629 1.27421C9.54263 1.169 10.244 1.11639 10.9747 1.11639C11.9859 1.11639 12.9036 1.25083 13.7102 1.51386C14.5168 1.77689 15.2124 2.15098 15.7794 2.63028C16.3463 3.10957 16.7847 3.68824 17.0945 4.36627C17.4043 5.0443 17.5563 5.79248 17.5563 6.61664C17.5563 7.4934 17.416 8.26496 17.1354 8.9313C16.8549 9.59764 16.4574 10.1529 15.9372 10.5972C15.417 11.0414 14.7974 11.3746 14.0667 11.5967C13.3361 11.8188 12.5295 11.9298 11.6352 11.9298C11.4072 11.9298 11.1734 11.9123 10.9338 11.8831C10.6941 11.8539 10.4662 11.8129 10.2557 11.772C10.0453 11.7311 9.85242 11.6843 9.68876 11.6376C9.5251 11.5908 9.40235 11.5557 9.32636 11.5207C9.30298 11.5441 9.28545 11.5674 9.26791 11.6025C9.25038 11.6376 9.24453 11.6843 9.24453 11.7486C9.24453 11.8246 9.2796 11.8948 9.3439 11.9649C9.40819 12.035 9.5251 12.0935 9.68876 12.152C9.85242 12.2104 10.0745 12.2572 10.3493 12.2981C10.624 12.339 10.9805 12.3799 11.4014 12.4033V13.9756C11.2377 14.1101 11.039 14.2328 10.811 14.338C10.5831 14.4432 10.3376 14.5368 10.0745 14.6127C9.81151 14.6887 9.54263 14.7472 9.25622 14.7822C8.96981 14.8173 8.68925 14.8407 8.40868 14.8407C8.01706 14.8407 7.64297 14.7998 7.28058 14.7238C6.91818 14.6478 6.5967 14.5192 6.32198 14.3497C6.04726 14.1802 5.8193 13.9581 5.65564 13.6892C5.49197 13.4203 5.4043 13.093 5.4043 12.7189V2.94007H5.42183ZM11.1676 7.74474C11.1676 7.74474 11.2202 7.76812 11.2669 7.76812C11.3137 7.76812 11.3429 7.76812 11.3546 7.76812C11.5183 7.76812 11.6352 7.71552 11.7053 7.61615C11.7755 7.51678 11.8105 7.34728 11.8105 7.11347V6.33023C11.8105 6.09058 11.7813 5.91523 11.7229 5.80417C11.6644 5.69311 11.5592 5.6405 11.4014 5.6405C11.3663 5.6405 11.3254 5.6405 11.2786 5.6522C11.2319 5.66389 11.1909 5.66973 11.1676 5.68142C11.1734 5.73403 11.1793 5.79248 11.1793 5.85677V7.7389L11.1676 7.74474Z" fill="#082F1E"/>
<path d="M18.4328 0.485144C18.5848 0.409157 18.766 0.339016 18.9705 0.26303C19.1751 0.187043 19.4148 0.128592 19.6836 0.0759864C19.9525 0.0233804 20.2331 0 20.537 0C21.028 0 21.4547 0.0526059 21.8054 0.163663C22.1561 0.27472 22.4484 0.426693 22.6763 0.619581C22.9043 0.812469 23.0679 1.05212 23.1732 1.32099C23.2784 1.58987 23.331 1.89966 23.331 2.23283V9.45738C23.331 9.93083 23.3836 10.3341 23.483 10.6732C23.5823 11.0122 23.7811 11.2694 24.0675 11.4506C24.0733 11.5032 24.0792 11.5733 24.0792 11.6493V11.8305C24.0792 12.8242 23.8278 13.5723 23.3251 14.0692C22.8225 14.566 22.121 14.8173 21.2267 14.8173C20.8234 14.8173 20.4318 14.7589 20.0577 14.642C19.6836 14.5251 19.3505 14.3322 19.0582 14.0575C18.766 13.7828 18.538 13.4262 18.3626 12.9761C18.1873 12.5261 18.0996 11.9766 18.0996 11.322V0.654652C18.1698 0.613736 18.275 0.555285 18.4269 0.479299L18.4328 0.485144Z" fill="#082F1E"/>
<path d="M34.9214 9.55675C34.9214 10.0302 34.974 10.4218 35.0734 10.7258C35.1727 11.0297 35.3715 11.2752 35.6579 11.4564C35.6637 11.509 35.6696 11.5792 35.6696 11.6551V11.8363C35.6696 12.3566 35.5877 12.8066 35.4241 13.1807C35.2604 13.5548 35.0441 13.8646 34.7811 14.1101C34.5181 14.3556 34.22 14.5309 33.881 14.6478C33.5419 14.7647 33.2029 14.8232 32.8522 14.8232C32.6067 14.8232 32.3671 14.794 32.1274 14.7355C31.8878 14.6771 31.6657 14.5894 31.4611 14.4725C31.2565 14.3556 31.0636 14.2095 30.8941 14.0283C30.7246 13.8471 30.596 13.6308 30.4967 13.3853C30.3797 13.3853 30.2921 13.4145 30.2336 13.4788C30.1752 13.5431 30.1459 13.6249 30.1459 13.7243C30.1459 13.8178 30.1752 13.923 30.2395 14.0341C30.3038 14.1452 30.3914 14.2562 30.5083 14.3731C30.2862 14.5251 29.994 14.6361 29.6257 14.7121C29.2575 14.7881 28.8776 14.8232 28.4976 14.8232C27.8722 14.8232 27.3052 14.7355 26.7967 14.566C26.2882 14.3965 25.8498 14.1393 25.4815 13.8061C25.1133 13.473 24.8327 13.0638 24.6282 12.5787C24.4236 12.0935 24.3242 11.5382 24.3242 10.907C24.3242 10.2757 24.4294 9.69118 24.6457 9.21773C24.862 8.74428 25.1542 8.34681 25.5225 8.03702C25.8907 7.72723 26.3232 7.49343 26.8142 7.34145C27.3052 7.18948 27.8254 7.11349 28.369 7.11349C28.6145 7.11349 28.8366 7.11934 29.0237 7.13687C29.2107 7.15441 29.3802 7.17195 29.5147 7.19533C29.6725 7.22455 29.8069 7.24793 29.918 7.27716C29.9414 7.20702 29.9472 7.14856 29.9472 7.1018C29.9472 7.01413 29.9004 6.93814 29.8069 6.87384C29.7134 6.80955 29.5907 6.76863 29.4445 6.73356C29.2984 6.69849 29.1172 6.68096 28.9185 6.66927C28.7197 6.65758 28.5152 6.64589 28.3106 6.64589C27.843 6.64589 27.3812 6.69849 26.9136 6.79786C26.446 6.89722 26.031 7.06089 25.6627 7.27131C25.5108 7.01997 25.388 6.69849 25.3004 6.30687C25.2127 5.91525 25.1601 5.51778 25.1601 5.11447C25.1601 4.92158 25.1718 4.72869 25.1951 4.5358C25.2185 4.34291 25.2711 4.16756 25.3413 4.01559C25.5166 3.93376 25.7446 3.84024 26.0251 3.74087C26.3057 3.6415 26.6272 3.54798 26.9896 3.46615C27.352 3.38432 27.7611 3.30833 28.1995 3.24403C28.6379 3.17974 29.1172 3.15051 29.6199 3.15051C30.5025 3.15051 31.274 3.24988 31.9345 3.44861C32.595 3.64735 33.1445 3.93376 33.5829 4.30784C34.0212 4.68193 34.3486 5.13785 34.5707 5.68729C34.7928 6.23673 34.898 6.84462 34.898 7.53434V9.5509L34.9214 9.55675ZM29.5907 10.0594C29.4328 10.0594 29.3218 10.1003 29.2575 10.1763C29.1932 10.2523 29.1581 10.3458 29.1581 10.451C29.1581 10.5855 29.2049 10.6849 29.3042 10.7375C29.4036 10.7901 29.5205 10.8193 29.6608 10.8193C29.8829 10.8193 30.0466 10.7667 30.1635 10.6556C30.2804 10.5446 30.3388 10.3458 30.3388 10.0594H29.5907Z" fill="#082F1E"/>
<path d="M38.0663 3.41354C38.3527 3.41354 38.5982 3.46614 38.7911 3.56551C38.984 3.66488 39.1593 3.79932 39.3113 3.95713C39.0074 4.2377 38.8613 4.4715 38.8613 4.65855C38.8613 4.74038 38.8905 4.81636 38.9431 4.88066C38.9957 4.94496 39.0892 4.98003 39.2178 4.98003C39.3522 4.74038 39.5334 4.51242 39.7556 4.2903C39.9777 4.06819 40.2407 3.88115 40.5388 3.71748C40.8369 3.55382 41.1701 3.41938 41.5383 3.32002C41.9065 3.22065 42.2982 3.17389 42.7132 3.17389C43.2042 3.17389 43.7068 3.23819 44.2212 3.36678C44.7356 3.49537 45.1915 3.72333 45.6007 4.04481C46.0098 4.36629 46.3488 4.80467 46.606 5.35996C46.8632 5.91524 46.9976 6.61081 46.9976 7.45835C46.9976 7.76814 46.9976 8.113 46.9801 8.49878C46.9626 8.88456 46.9626 9.24111 46.9626 9.56843C46.9626 10.0419 47.0152 10.4335 47.1145 10.7375C47.2139 11.0414 47.4126 11.2869 47.699 11.4681C47.7049 11.5207 47.7107 11.5908 47.7107 11.6668V11.848C47.7107 12.3332 47.6348 12.7657 47.4828 13.1398C47.3308 13.5139 47.1262 13.8237 46.869 14.0809C46.6119 14.338 46.3079 14.5251 45.9572 14.6537C45.6065 14.7823 45.2441 14.8466 44.8525 14.8466C44.4433 14.8466 44.0517 14.7881 43.6776 14.6771C43.3035 14.566 42.9762 14.379 42.6898 14.1218C42.4034 13.8646 42.1813 13.5314 42.0118 13.1164C41.8423 12.7014 41.7604 12.1929 41.7604 11.5908C41.7604 11.2694 41.7721 10.9654 41.7955 10.679C41.8189 10.3926 41.8481 10.1237 41.8773 9.87238C41.9065 9.62104 41.9358 9.39308 41.965 9.17681C41.9942 8.96054 42.0059 8.76765 42.0059 8.5923C42.0059 8.26498 41.9708 8.03702 41.9007 7.92011C41.8306 7.80321 41.7137 7.73892 41.5558 7.73892C41.4506 7.73892 41.3571 7.76814 41.2694 7.82075L41.4039 9.49829C41.3688 9.70287 41.3396 9.91329 41.3162 10.1179C41.2928 10.3225 41.2753 10.5212 41.2577 10.7082C41.2402 10.8953 41.2344 11.0589 41.2285 11.2109C41.2227 11.3629 41.2168 11.4856 41.2168 11.5791C41.2168 12.1111 41.2694 12.5553 41.3746 12.906C41.4799 13.2567 41.6026 13.5548 41.737 13.812C41.4331 14.1276 41.0415 14.379 40.5622 14.566C40.0829 14.753 39.5276 14.8466 38.9139 14.8466C38.6041 14.8466 38.2943 14.7998 37.9728 14.7121C37.6513 14.6244 37.3649 14.49 37.1077 14.3088C36.8505 14.1276 36.6401 13.8997 36.4764 13.6308C36.3128 13.3619 36.231 13.0404 36.231 12.6722V7.698C36.0264 7.41159 35.8744 7.08426 35.775 6.72187C35.6757 6.35947 35.6289 5.97954 35.6289 5.58207C35.6289 5.25475 35.6757 4.89235 35.775 4.49488C35.8744 4.09742 36.0264 3.74671 36.231 3.43692H38.0605L38.0663 3.41354Z" fill="#082F1E"/>
<path d="M48.7388 8.14805H49.3759C49.5512 8.14805 49.6857 8.11883 49.7675 8.05453C49.8493 7.99024 49.8902 7.9084 49.8902 7.80904C49.8902 7.76812 49.8844 7.72721 49.8669 7.68629H47.5639C47.4879 7.4408 47.4295 7.16608 47.3944 6.86798C47.3593 6.56988 47.3359 6.26593 47.3359 5.95614C47.3359 5.75741 47.3476 5.52945 47.371 5.27226C47.3944 5.01508 47.4295 4.79881 47.4704 4.6293C47.7568 4.45395 48.0432 4.26106 48.3296 4.05648C48.616 3.8519 48.8674 3.66486 49.0836 3.5012C49.1479 3.35507 49.2181 3.16803 49.2999 2.93422C49.3817 2.70042 49.4636 2.46077 49.5454 2.20358C49.6272 1.9464 49.7091 1.70675 49.7792 1.4671C49.8493 1.22745 49.9195 1.03456 49.9721 0.876745C50.1942 0.824139 50.4806 0.771533 50.843 0.730617C51.2054 0.689701 51.5736 0.666321 51.9536 0.666321C52.2458 0.666321 52.5439 0.683856 52.842 0.718927C53.1401 0.753997 53.4675 0.806603 53.824 0.88259V3.40183H55.6009C55.7996 3.70578 55.9458 4.03895 56.0451 4.41303C56.1445 4.78712 56.1913 5.15536 56.1913 5.52945C56.1913 5.88015 56.1445 6.2484 56.0451 6.64586C55.9458 7.04333 55.7996 7.38235 55.6009 7.66876H54.1338V9.21771C54.1338 9.69116 54.2273 10.0302 54.4202 10.2289C54.6131 10.4276 54.882 10.5329 55.2327 10.5329H55.6769C55.7295 10.7374 55.7821 10.9595 55.823 11.1875C55.8639 11.4155 55.8873 11.6551 55.8873 11.8889C55.8873 12.8417 55.5892 13.5665 54.993 14.0691C54.3968 14.5718 53.5493 14.8173 52.4446 14.8173C51.8893 14.8173 51.3866 14.7413 50.9307 14.5894C50.4748 14.4374 50.0831 14.2094 49.7558 13.8996C49.4285 13.5898 49.1713 13.2041 48.9959 12.7423C48.8206 12.2805 48.7271 11.7311 48.7271 11.1057V8.13636L48.7388 8.14805Z" fill="#082F1E"/>
<path d="M4.27594 19.622C4.62664 19.622 4.92474 19.6863 5.15855 19.809C5.39235 19.9318 5.60862 20.0954 5.78982 20.2883C5.42158 20.6332 5.23453 20.9138 5.23453 21.1417C5.23453 21.2411 5.26961 21.3346 5.3339 21.4106C5.3982 21.4924 5.5151 21.5275 5.67292 21.5275C5.84243 21.2352 6.047 20.9605 6.29834 20.6975C6.54968 20.4403 6.84778 20.2123 7.19264 20.0136C7.53751 19.8149 7.92913 19.6629 8.36751 19.5402C8.80589 19.4233 9.29688 19.3648 9.84048 19.3648C10.2613 19.3648 10.6471 19.4174 11.0037 19.5168C11.3602 19.6161 11.6817 19.7447 11.9622 19.9084C12.2487 20.0662 12.4883 20.2416 12.6929 20.4286C12.8975 20.6157 13.0553 20.8027 13.1722 20.9897C13.3709 20.7209 13.6047 20.4871 13.8736 20.2825C14.1425 20.0779 14.4289 19.9084 14.7328 19.774C15.0368 19.6395 15.3583 19.5402 15.6914 19.47C16.0246 19.4057 16.3578 19.3707 16.6851 19.3707C17.4566 19.3707 18.1347 19.4934 18.725 19.733C19.3154 19.9785 19.8122 20.3234 20.2155 20.7793C20.6188 21.2352 20.9228 21.7905 21.1332 22.4393C21.3436 23.0881 21.4489 23.8188 21.4489 24.6312C21.4489 25.0053 21.443 25.4203 21.4255 25.8646C21.4079 26.3088 21.4021 26.7296 21.4021 27.1329C21.4021 27.7116 21.4664 28.1968 21.5891 28.5942C21.7119 28.9917 21.9515 29.3015 22.3022 29.5178C22.3081 29.582 22.3139 29.658 22.3139 29.734V29.9211C22.3139 30.5173 22.2204 31.0433 22.0334 31.4992C21.8463 31.9552 21.5891 32.3409 21.2735 32.6507C20.9579 32.9605 20.5838 33.1943 20.1571 33.3463C19.7304 33.4983 19.2803 33.5801 18.801 33.5801C18.2983 33.5801 17.819 33.5158 17.3631 33.3814C16.9072 33.2469 16.5039 33.0248 16.159 32.715C15.8142 32.4052 15.5336 32.0019 15.329 31.4992C15.1245 30.9966 15.0192 30.377 15.0192 29.6405V25.6717C15.0192 25.1105 14.8322 24.83 14.464 24.83C14.4055 24.83 14.3412 24.8417 14.2769 24.8592C14.2126 24.8826 14.16 24.906 14.1249 24.9293L14.3529 26.7998V29.6405C14.3529 30.1841 14.3938 30.6751 14.4756 31.1018C14.5575 31.5343 14.7036 31.9084 14.914 32.224C14.5049 32.6624 14.0022 32.9956 13.4001 33.2294C12.8039 33.4632 12.1961 33.5801 11.5882 33.5801C11.1439 33.5801 10.7231 33.5275 10.3198 33.4164C9.91646 33.3054 9.55991 33.1183 9.25012 32.8495C8.94033 32.5806 8.69484 32.224 8.51364 31.7681C8.33244 31.318 8.24476 30.7511 8.24476 30.073V25.6658C8.24476 25.1047 8.05772 24.8241 7.68948 24.8241C7.63103 24.8241 7.56673 24.8358 7.50244 24.8534C7.43814 24.8767 7.38553 24.9001 7.35046 24.9235L7.57842 26.7939V30.1198C7.57842 30.5699 7.6018 30.9673 7.64856 31.3064C7.69532 31.6454 7.79469 31.9727 7.95835 32.2942C7.59011 32.68 7.11081 32.9897 6.52046 33.2177C5.9301 33.4457 5.25792 33.5626 4.5039 33.5626C4.11227 33.5626 3.72065 33.51 3.32903 33.3989C2.93741 33.2878 2.59255 33.1242 2.28276 32.8962C1.97297 32.6683 1.72163 32.3877 1.52874 32.0487C1.33585 31.7097 1.24233 31.3064 1.24233 30.8387V24.8358C0.990989 24.4851 0.803945 24.0877 0.681198 23.6434C0.558451 23.1992 0.5 22.7374 0.5 22.2523C0.5 21.849 0.558451 21.4047 0.681198 20.9196C0.803945 20.4345 0.990989 20.0019 1.24233 19.6278H4.27009L4.27594 19.622Z" fill="#082F1E"/>
<path d="M35.443 27.1272C35.443 27.7058 35.5073 28.1793 35.63 28.5592C35.7528 28.9391 35.9924 29.2314 36.3431 29.4535C36.349 29.5178 36.3548 29.5996 36.3548 29.699V29.9211C36.3548 30.5582 36.2555 31.1077 36.0509 31.5636C35.8521 32.0254 35.5891 32.4053 35.2676 32.6975C34.9462 32.9956 34.5779 33.2119 34.1688 33.358C33.7596 33.4983 33.3387 33.5743 32.9121 33.5743C32.6081 33.5743 32.3159 33.5392 32.0294 33.4691C31.743 33.399 31.4683 33.2937 31.2111 33.1476C30.9539 33.0073 30.726 32.8261 30.5214 32.604C30.3168 32.3819 30.1532 32.1189 30.0363 31.8208C29.896 31.8208 29.7849 31.8558 29.7148 31.9318C29.6446 32.0078 29.6096 32.1072 29.6096 32.2358C29.6096 32.3527 29.6446 32.4813 29.7206 32.6099C29.7966 32.7443 29.9018 32.8846 30.048 33.0249C29.7791 33.2119 29.4225 33.3463 28.9666 33.4399C28.5107 33.5334 28.0548 33.5802 27.5872 33.5802C26.8273 33.5802 26.1317 33.4749 25.5063 33.2645C24.8809 33.0541 24.349 32.7443 23.8989 32.3351C23.4488 31.926 23.104 31.4233 22.8585 30.833C22.613 30.2426 22.4902 29.5646 22.4902 28.793C22.4902 28.0215 22.6247 27.3084 22.8877 26.7297C23.1507 26.1452 23.5073 25.6659 23.9632 25.2859C24.4133 24.906 24.9393 24.6255 25.5414 24.4384C26.1376 24.2572 26.7747 24.1637 27.441 24.1637C27.745 24.1637 28.008 24.1754 28.2477 24.1929C28.4815 24.2163 28.6802 24.2397 28.8497 24.2631C29.0426 24.2981 29.2063 24.3274 29.3407 24.3624C29.3641 24.2806 29.3758 24.2104 29.3758 24.1462C29.3758 24.0351 29.3173 23.9474 29.2063 23.8714C29.0952 23.7954 28.9432 23.737 28.762 23.7019C28.575 23.6669 28.3646 23.6376 28.1191 23.6201C27.8736 23.6026 27.6281 23.5967 27.3767 23.5967C26.8098 23.5967 26.2369 23.661 25.67 23.7838C25.103 23.9065 24.5886 24.0994 24.1386 24.3624C23.9515 24.0526 23.8054 23.661 23.6943 23.1817C23.5833 22.7024 23.5248 22.2173 23.5248 21.7263C23.5248 21.4925 23.5365 21.2528 23.5716 21.019C23.6008 20.7794 23.6593 20.5689 23.7528 20.3878C23.969 20.2884 24.2496 20.1773 24.5886 20.0546C24.9276 19.9318 25.3193 19.8208 25.7693 19.7156C26.2194 19.6104 26.7104 19.5227 27.254 19.4467C27.7976 19.3707 28.3763 19.3356 28.9958 19.3356C30.0772 19.3356 31.0182 19.4584 31.8307 19.698C32.6373 19.9435 33.3095 20.2884 33.8473 20.7443C34.385 21.2002 34.7825 21.7613 35.0514 22.4277C35.3202 23.094 35.4547 23.8422 35.4547 24.6839V27.1447L35.443 27.1272ZM28.9257 27.7467C28.7328 27.7467 28.5984 27.7935 28.5165 27.8929C28.4347 27.9922 28.3996 28.0974 28.3996 28.226C28.3996 28.3955 28.4581 28.5124 28.5808 28.5767C28.7036 28.641 28.8439 28.6761 29.0134 28.6761C29.2822 28.6761 29.4868 28.6118 29.6271 28.4774C29.7674 28.3429 29.8434 28.1033 29.8434 27.7467H28.9257Z" fill="#082F1E"/>
<path d="M37.6404 25.4087H38.4178C38.634 25.4087 38.7919 25.3736 38.8971 25.2976C39.0023 25.2216 39.0491 25.1223 39.0491 24.9937C39.0491 24.9411 39.0432 24.8943 39.0257 24.8417H36.2142C36.1207 24.5377 36.0505 24.2104 36.0096 23.8422C35.9628 23.4798 35.9395 23.1057 35.9395 22.7316C35.9395 22.4861 35.9511 22.2114 35.9862 21.8958C36.0154 21.5801 36.0564 21.3229 36.1031 21.1125C36.4538 20.8962 36.8045 20.6624 37.1494 20.4111C37.4943 20.1598 37.804 19.9318 38.0729 19.7331C38.1489 19.5577 38.2366 19.3298 38.3359 19.0433C38.4353 18.7569 38.5347 18.4588 38.6399 18.149C38.7393 17.8393 38.8386 17.5412 38.9263 17.2489C39.0198 16.9625 39.0958 16.717 39.166 16.5241C39.4348 16.4598 39.7914 16.4014 40.2356 16.3488C40.6798 16.2961 41.1299 16.2728 41.5917 16.2728C41.9541 16.2728 42.3165 16.2961 42.6789 16.3371C43.0413 16.378 43.4446 16.4481 43.8771 16.5358V19.6103H46.0515C46.297 19.9786 46.4782 20.3936 46.5951 20.8495C46.7178 21.3054 46.7763 21.7613 46.7763 22.2114C46.7763 22.6381 46.7178 23.094 46.5951 23.5733C46.4723 24.0526 46.2911 24.4734 46.0515 24.8242H44.257V26.718C44.257 27.2966 44.3739 27.7058 44.6077 27.9571C44.8415 28.2026 45.1747 28.3254 45.6014 28.3254H46.1392C46.2035 28.5767 46.2678 28.8456 46.3204 29.132C46.373 29.4184 46.4022 29.699 46.4022 29.9854C46.4022 31.1486 46.0398 32.037 45.3092 32.6449C44.5785 33.2586 43.5439 33.5626 42.1937 33.5626C41.5157 33.5626 40.8961 33.4691 40.3408 33.2879C39.7855 33.1067 39.3062 32.8261 38.9029 32.4462C38.4996 32.0662 38.1898 31.5986 37.9735 31.0317C37.7573 30.4647 37.6462 29.7983 37.6462 29.0268V25.397L37.6404 25.4087Z" fill="#082F1E"/>
<path d="M54.339 33.7321C53.1934 33.7321 52.1529 33.5684 51.2236 33.2353C50.2942 32.9021 49.4992 32.4286 48.8446 31.8032C48.1899 31.1778 47.6814 30.4179 47.3249 29.5236C46.9683 28.6293 46.793 27.6181 46.793 26.4959C46.793 25.3152 46.9859 24.2747 47.3658 23.3687C47.7457 22.4627 48.2601 21.7087 48.9089 21.095C49.5577 20.4813 50.3117 20.0253 51.1768 19.7155C52.036 19.4058 52.9479 19.2538 53.9006 19.2538C54.9118 19.2538 55.8237 19.3999 56.6361 19.698C57.4486 19.9961 58.1383 20.4053 58.717 20.9196C59.2898 21.4399 59.734 22.0477 60.0438 22.7433C60.3536 23.4389 60.5056 24.1812 60.5056 24.9645C60.5056 25.7068 60.3711 26.3497 60.1081 26.8875C59.8451 27.4252 59.4768 27.8636 59.0092 28.2143C58.5416 28.5592 57.9863 28.8222 57.3375 28.9859C56.6946 29.1554 55.9932 29.2372 55.2391 29.2372C54.6722 29.2372 54.1169 29.1729 53.585 29.0385C53.0531 28.9041 52.5972 28.7229 52.2231 28.5007C52.1822 28.5358 52.1529 28.5767 52.1412 28.6352C52.1295 28.6878 52.1237 28.7404 52.1237 28.7813C52.1237 28.9041 52.2172 29.0326 52.3984 29.1495C52.5796 29.2723 52.8193 29.3775 53.1115 29.4769C53.4038 29.5762 53.737 29.6522 54.1169 29.7165C54.4968 29.7808 54.8709 29.81 55.245 29.81C55.7652 29.81 56.2387 29.775 56.6653 29.7048C57.092 29.6347 57.4778 29.547 57.8168 29.4418C58.1559 29.3366 58.4481 29.2197 58.6994 29.0969C58.9508 28.9742 59.1612 28.8514 59.3249 28.7345C59.4359 28.8281 59.5295 28.9625 59.6054 29.1437C59.6873 29.3249 59.7516 29.5236 59.81 29.7399C59.8685 29.9562 59.9094 30.1841 59.9445 30.4121C59.9737 30.64 59.9912 30.8563 59.9912 31.0434C59.9912 31.2304 59.9795 31.4174 59.962 31.587C59.9386 31.7565 59.9152 31.9084 59.8802 32.0312C59.6113 32.2591 59.319 32.4754 59.0034 32.68C58.6878 32.8846 58.3078 33.0658 57.8753 33.2177C57.4369 33.3697 56.9342 33.4983 56.3614 33.5918C55.7886 33.6853 55.1105 33.738 54.3331 33.738L54.339 33.7321ZM54.1753 25.2333C54.3858 25.2333 54.5436 25.1866 54.6488 25.0989C54.754 25.0112 54.8066 24.8943 54.8066 24.754C54.8066 24.5845 54.7482 24.4676 54.6254 24.4033C54.5027 24.339 54.3565 24.304 54.1929 24.304C53.9591 24.304 53.772 24.3683 53.6317 24.4968C53.4915 24.6254 53.4096 24.8008 53.3746 25.0171C53.4564 25.0697 53.5674 25.1164 53.7019 25.1632C53.8363 25.2099 53.9941 25.2333 54.1812 25.2333H54.1753Z" fill="#082F1E"/>
</g>
<defs>
<clipPath id="clip0_111_9512">
<rect width="61" height="33.7379" fill="white" transform="translate(0.5)"/>
</clipPath>
</defs>
</svg>
